<svg width="311" height="372" viewBox="0 0 311 372" fill="none" xmlns="http://www.w3.org/2000/svg">
<path d="M74.0962 38.4036L70.2997 37.8384C70.1675 37.8186 70.0389 37.8296 69.9081 37.8186C69.7295 37.7994 69.5502 37.7905 69.3704 37.7916C68.3951 37.7955 67.4359 38.0343 66.5789 38.4863L44.4192 46.5097L21.1473 54.9359C17.6587 56.199 16.8879 60.6541 19.7585 62.954L38.9135 78.3011L58.0683 93.6483C58.8004 94.2387 59.6982 94.6031 60.6458 94.6939C60.709 94.7049 60.7664 94.7308 60.831 94.7397L98.101 101.108L100.407 101.29L152.79 111.194L166.315 114.079C231.753 128.441 191.118 192.936 191.118 192.936C168.609 234.572 204.312 241.45 204.312 241.45L268.771 252.689C316.589 253.64 306.731 213.374 306.731 213.374L291.708 145.595C275.429 88.6759 221.379 65.108 221.379 65.108L121.183 46.4696L118.239 45.92L111.204 45.0816" fill="url(#paint0_linear_80622_87)"/>
<path d="M292.536 359.168L269.057 353.133L269.042 353.034L207.306 337.163C206.474 336.95 205.694 336.577 205.01 336.07C204.325 335.566 203.75 334.931 203.318 334.211C202.886 333.488 202.604 332.69 202.489 331.862C202.375 331.034 202.429 330.193 202.649 329.386L202.737 329.065C202.957 328.257 203.339 327.499 203.861 326.836C204.383 326.171 205.035 325.614 205.779 325.194C206.523 324.774 207.345 324.501 208.198 324.389C209.051 324.278 209.918 324.331 210.75 324.545L266.162 338.791L266.16 338.784L266.172 338.788C267.004 339.001 267.872 339.054 268.724 338.944C269.577 338.83 270.399 338.557 271.143 338.139C271.888 337.72 272.539 337.159 273.061 336.496C273.583 335.832 273.965 335.076 274.186 334.268L274.273 333.945C274.494 333.139 274.548 332.297 274.433 331.469C274.319 330.642 274.037 329.844 273.604 329.122C273.172 328.4 272.597 327.767 271.913 327.26C271.229 326.754 270.448 326.383 269.616 326.169L260.127 323.73L260.12 323.719L233.001 316.746C232.169 316.532 231.388 316.162 230.704 315.655C230.02 315.149 229.445 314.516 229.013 313.794C228.58 313.072 228.299 312.274 228.184 311.446C228.069 310.618 228.123 309.776 228.344 308.969L228.431 308.648C228.652 307.841 229.034 307.083 229.556 306.419C230.078 305.755 230.729 305.197 231.473 304.778C232.218 304.358 233.04 304.085 233.892 303.973C234.745 303.862 235.613 303.915 236.445 304.129L248.823 307.31L248.698 307.176L249.041 307.265C249.874 307.479 250.741 307.531 251.594 307.42C252.447 307.309 253.269 307.035 254.013 306.615C254.757 306.196 255.408 305.638 255.93 304.974C256.452 304.31 256.835 303.552 257.055 302.745L257.142 302.424C257.363 301.616 257.417 300.775 257.302 299.947C257.187 299.119 256.906 298.321 256.474 297.599C256.041 296.877 255.466 296.245 254.782 295.738C254.098 295.231 253.317 294.86 252.485 294.647L201.333 282.652L197.333 281.703L144.476 270.983C79.0384 256.621 119.674 192.126 119.674 192.126C142.183 150.489 106.48 143.612 106.48 143.612L42.0213 132.373C-5.7965 131.422 4.06198 171.688 4.06198 171.688L19.0846 239.467C35.3631 296.386 89.4138 319.954 89.4138 319.954L188.278 345.643C188.761 345.913 189.285 346.129 189.849 346.274L289.093 371.789C289.925 372.002 290.792 372.055 291.645 371.942C292.498 371.832 293.32 371.559 294.064 371.14C294.808 370.718 295.46 370.161 295.982 369.497C296.503 368.834 296.886 368.074 297.106 367.269L297.193 366.946C297.414 366.141 297.469 365.296 297.354 364.469C297.239 363.643 296.957 362.844 296.525 362.12C296.093 361.4 295.518 360.765 294.834 360.258C294.149 359.754 293.369 359.381 292.536 359.168Z" fill="url(#paint1_linear_80622_87)"/>
<path d="M101.03 35.5425L101.271 34.1165C101.467 33.1787 101.536 31.8443 102.163 30.055C102.46 29.18 102.681 28.1297 103.144 27.1086C103.613 26.0895 104.101 24.968 104.68 23.784C105.366 22.6592 106.075 21.4305 106.895 20.1673C107.833 18.989 108.73 17.6499 109.892 16.4216C111.084 15.223 112.242 13.8629 113.715 12.7146C114.428 12.1159 115.146 11.4916 115.903 10.884L118.343 9.18498L119.604 8.32097L120.957 7.55173C121.874 7.04559 122.798 6.51489 123.754 6.01098C125.737 5.15588 127.724 4.11907 129.91 3.44124C134.192 1.83361 138.921 0.823556 143.805 0.311843L147.504 0.0286662C148.744 -0.0259397 149.988 0.0152894 151.241 0.00971879L153.124 0.0230949C153.748 0.0531831 154.371 0.118966 154.997 0.166902L156.876 0.327455L157.818 0.40995L158.29 0.452315L158.526 0.473497L158.644 0.484638L158.703 0.490208C158.856 0.519196 158.444 0.434467 159.061 0.554891L162.381 1.06771C162.944 1.16024 163.466 1.22379 164.061 1.33864L166.013 1.77787C167.304 2.08223 168.658 2.36987 169.903 2.71993L173.512 3.85374C178.252 5.49817 182.843 7.62418 186.591 10.5217C188.55 11.8718 190.156 13.5418 191.765 15.1002C192.52 15.9277 193.189 16.8062 193.881 17.6411L194.873 18.912L195.731 20.2443C196.288 21.1072 196.827 21.9819 197.345 22.8675C197.8 23.7673 198.207 24.6703 198.619 25.5442C199.457 27.2835 199.943 29.0952 200.431 30.7809C200.906 32.4744 201.042 34.179 201.282 35.7252C201.351 37.3173 201.343 38.8157 201.296 40.197C201.148 41.5939 200.905 42.8836 200.699 44.0488C200.475 45.2148 200.044 46.2671 199.732 47.195C199.41 48.1246 199.093 48.9329 198.686 49.613C198.384 50.1914 198.061 50.7594 197.719 51.3165C197.446 51.7795 197.158 52.2337 196.853 52.6776C196.588 53.0512 196.033 53.1626 195.613 52.9263C195.43 52.8259 195.292 52.6613 195.229 52.4658L195.204 52.3845C195.204 52.3845 195.038 51.8526 194.792 50.9063C194.5 49.9561 194.328 48.6139 193.68 46.9739C193.365 46.1579 193.198 45.274 192.77 44.343L191.53 41.4076C190.953 40.4042 190.461 39.3472 189.875 38.2771L188.854 36.6761C188.49 36.1422 188.247 35.5681 187.795 35.044C186.933 33.9906 186.293 32.831 185.265 31.7921L183.894 30.1497C183.353 29.637 182.84 29.1051 182.328 28.5644L181.556 27.754C181.264 27.5021 180.959 27.2579 180.678 26.9972L178.972 25.4207C177.679 24.4741 176.586 23.328 175.205 22.3892C172.669 20.3046 169.794 18.3411 166.652 16.4883L164.21 15.1808C163.401 14.7827 162.618 14.4907 161.809 14.1215L160.596 13.5808C160.118 13.4181 159.545 13.2698 159.024 13.1126L155.819 12.185L153.238 11.6655C152.757 11.5707 152.276 11.4571 151.791 11.3768L150.329 11.2073C149.352 11.1048 148.374 10.9476 147.394 10.8784L144.451 10.7714C140.55 10.7837 136.618 10.9866 132.942 11.8205C131.055 12.1092 129.332 12.7447 127.553 13.2063L125.041 14.1539L123.792 14.6156L122.619 15.1694L120.303 16.2644L118.18 17.5119C116.726 18.2854 115.559 19.281 114.32 20.1475C113.122 21.0494 112.131 22.0549 111.071 22.9423C110.135 23.9099 109.291 24.8743 108.456 25.7684L106.459 28.4853C105.827 29.3294 105.453 30.1564 104.993 30.8902C104.059 32.3172 103.628 33.7152 103.23 34.5693L102.662 35.9193C102.497 36.3082 102.01 36.5055 101.573 36.3607C101.188 36.2326 100.971 35.8867 101.03 35.5425Z" fill="url(#paint2_linear_80622_87)"/>
<path d="M216.545 63.8347C216.545 63.8347 255.154 113.155 195.776 184.105L189.849 192.73C189.849 192.73 173.055 221.601 190.554 234.465C190.554 234.465 198.011 243.32 259.01 251.425C259.01 251.425 315.585 260.58 309.602 223.59L294.094 153.624C294.094 153.624 283.707 79.999 216.545 63.8347Z" fill="url(#paint3_linear_80622_87)"/>
<path d="M94.2454 321.227C94.2454 321.227 55.637 271.907 115.015 200.957L120.941 192.332C120.941 192.332 137.736 163.461 120.236 150.597C120.236 150.597 112.78 141.741 51.7806 133.637C51.7806 133.637 -4.79464 124.482 1.18884 161.472L16.6966 231.438C16.6966 231.438 27.0833 305.063 94.2454 321.227Z" fill="url(#paint4_linear_80622_87)"/>
<path d="M285.649 316.199L266.045 311.159C265.556 311.033 265.098 310.816 264.696 310.518C264.294 310.221 263.957 309.849 263.703 309.425C263.449 309.001 263.283 308.532 263.216 308.046C263.149 307.56 263.181 307.066 263.31 306.591L264.783 301.194C264.912 300.72 265.136 300.275 265.443 299.885C265.749 299.495 266.132 299.167 266.569 298.921C267.006 298.674 267.489 298.514 267.99 298.448C268.491 298.383 269 298.414 269.489 298.54L289.093 303.58C289.582 303.706 290.04 303.923 290.442 304.221C290.844 304.518 291.182 304.89 291.436 305.314C291.689 305.738 291.855 306.207 291.923 306.693C291.99 307.179 291.958 307.673 291.828 308.148L290.355 313.545C290.226 314.019 290.002 314.464 289.695 314.854C289.389 315.244 289.006 315.571 288.569 315.818C288.132 316.065 287.649 316.225 287.148 316.291C286.647 316.356 286.138 316.325 285.649 316.199Z" fill="url(#paint5_linear_80622_87)"/>
<defs>
<linearGradient id="paint0_linear_80622_87" x1="17.9999" y1="145.25" x2="307.57" y2="145.25" gradientUnits="userSpaceOnUse">
<stop stop-color="#C1FD0F"/>
<stop offset="1" stop-color="#1C4146"/>
</linearGradient>
<linearGradient id="paint1_linear_80622_87" x1="543.945" y1="105.087" x2="-8.55033" y2="330.195" gradientUnits="userSpaceOnUse">
<stop stop-color="#1C4146"/>
<stop offset="1" stop-color="#C1FD0F"/>
</linearGradient>
<linearGradient id="paint2_linear_80622_87" x1="258.036" y1="15.7268" x2="13.1759" y2="48.0476" gradientUnits="userSpaceOnUse">
<stop stop-color="#C1FD0F"/>
<stop offset="1" stop-color="#1C4146"/>
</linearGradient>
<linearGradient id="paint3_linear_80622_87" x1="356.398" y1="201.955" x2="181.541" y2="138.487" gradientUnits="userSpaceOnUse">
<stop stop-color="#C1FD0F"/>
<stop offset="1" stop-color="#1C4146"/>
</linearGradient>
<linearGradient id="paint4_linear_80622_87" x1="-28.7408" y1="183.047" x2="133.12" y2="249.758" gradientUnits="userSpaceOnUse">
<stop stop-color="#1C4146"/>
<stop offset="1" stop-color="#C1FD0F"/>
</linearGradient>
<linearGradient id="paint5_linear_80622_87" x1="318.384" y1="354.886" x2="247.199" y2="317.088" gradientUnits="userSpaceOnUse">
<stop stop-color="#1C4146"/>
<stop offset="1" stop-color="#C1FD0F"/>
</linearGradient>
</defs>
</svg>
